<mxfile host="app.diagrams.net" agent="Mozilla/5.0 (Windows NT 10.0; Win64; x64) AppleWebKit/537.36 (KHTML, like Gecko) Chrome/134.0.0.0 Safari/537.36" version="26.1.1">
  <diagram name="Σελίδα-1" id="lIohy4EHYM9q75Kc4FoR">
    <mxGraphModel dx="1050" dy="530" grid="1" gridSize="10" guides="1" tooltips="1" connect="1" arrows="1" fold="1" page="1" pageScale="1" pageWidth="827" pageHeight="1169" math="0" shadow="0">
      <root>
        <mxCell id="0" />
        <mxCell id="1" parent="0" />
        <mxCell id="DRwPdE6h5wgFF9VWpqze-1" value="Actor" style="shape=umlActor;verticalLabelPosition=bottom;verticalAlign=top;html=1;outlineConnect=0;" vertex="1" parent="1">
          <mxGeometry x="40" y="150" width="30" height="60" as="geometry" />
        </mxCell>
        <mxCell id="DRwPdE6h5wgFF9VWpqze-2" value="Δημιουργία αγγελίας" style="ellipse;whiteSpace=wrap;html=1;fillColor=none;" vertex="1" parent="1">
          <mxGeometry x="252.5" y="50" width="140" height="60" as="geometry" />
        </mxCell>
        <mxCell id="DRwPdE6h5wgFF9VWpqze-4" value="" style="endArrow=classic;html=1;rounded=0;exitX=1;exitY=0.3333333333333333;exitDx=0;exitDy=0;exitPerimeter=0;entryX=0.097;entryY=0.773;entryDx=0;entryDy=0;entryPerimeter=0;" edge="1" parent="1" source="DRwPdE6h5wgFF9VWpqze-1" target="DRwPdE6h5wgFF9VWpqze-2">
          <mxGeometry width="50" height="50" relative="1" as="geometry">
            <mxPoint x="210" y="130" as="sourcePoint" />
            <mxPoint x="260" y="80" as="targetPoint" />
          </mxGeometry>
        </mxCell>
        <mxCell id="DRwPdE6h5wgFF9VWpqze-5" value="Διαγραφή/Επεξεργασία αγγελίας" style="ellipse;whiteSpace=wrap;html=1;fillColor=none;" vertex="1" parent="1">
          <mxGeometry x="500" y="25" width="140" height="65" as="geometry" />
        </mxCell>
        <mxCell id="DRwPdE6h5wgFF9VWpqze-7" value="&amp;lt;&amp;lt;extends&amp;gt;&amp;gt;" style="endArrow=none;dashed=1;html=1;dashPattern=1 3;strokeWidth=2;rounded=0;exitX=1;exitY=0.5;exitDx=0;exitDy=0;" edge="1" parent="1" source="DRwPdE6h5wgFF9VWpqze-2">
          <mxGeometry x="0.0909" y="20" width="50" height="50" relative="1" as="geometry">
            <mxPoint x="450" y="110" as="sourcePoint" />
            <mxPoint x="500" y="60" as="targetPoint" />
            <mxPoint as="offset" />
          </mxGeometry>
        </mxCell>
        <mxCell id="DRwPdE6h5wgFF9VWpqze-8" value="Έγκριση αιτήματος ενδιαφέροντος από συντάκτη" style="ellipse;whiteSpace=wrap;html=1;fillColor=none;" vertex="1" parent="1">
          <mxGeometry x="510" y="100" width="130" height="60" as="geometry" />
        </mxCell>
        <mxCell id="DRwPdE6h5wgFF9VWpqze-9" value="&amp;lt;&amp;lt;includes&amp;gt;&amp;gt;" style="endArrow=none;dashed=1;html=1;rounded=0;entryX=0.789;entryY=0.88;entryDx=0;entryDy=0;entryPerimeter=0;exitX=0.092;exitY=0.26;exitDx=0;exitDy=0;exitPerimeter=0;" edge="1" parent="1" source="DRwPdE6h5wgFF9VWpqze-8" target="DRwPdE6h5wgFF9VWpqze-2">
          <mxGeometry x="-0.0305" y="20" width="50" height="50" relative="1" as="geometry">
            <mxPoint x="520" y="110" as="sourcePoint" />
            <mxPoint x="220" y="40" as="targetPoint" />
            <Array as="points" />
            <mxPoint as="offset" />
          </mxGeometry>
        </mxCell>
        <mxCell id="DRwPdE6h5wgFF9VWpqze-10" value="Αναζήτηση αγγελίας που αφορά υιοθεσία/φιλοξενία" style="ellipse;whiteSpace=wrap;html=1;fillColor=none;" vertex="1" parent="1">
          <mxGeometry x="250" y="140" width="145" height="60" as="geometry" />
        </mxCell>
        <mxCell id="DRwPdE6h5wgFF9VWpqze-12" value="" style="endArrow=classic;html=1;rounded=0;exitX=1;exitY=0.3333333333333333;exitDx=0;exitDy=0;exitPerimeter=0;entryX=0.029;entryY=0.647;entryDx=0;entryDy=0;entryPerimeter=0;" edge="1" parent="1" source="DRwPdE6h5wgFF9VWpqze-1" target="DRwPdE6h5wgFF9VWpqze-10">
          <mxGeometry width="50" height="50" relative="1" as="geometry">
            <mxPoint x="195" y="250" as="sourcePoint" />
            <mxPoint x="245" y="200" as="targetPoint" />
          </mxGeometry>
        </mxCell>
        <mxCell id="DRwPdE6h5wgFF9VWpqze-13" value="Εκδήλωση ενδιαφέροντος για υιοθεσία/φιλοξενία" style="ellipse;whiteSpace=wrap;html=1;fillColor=none;" vertex="1" parent="1">
          <mxGeometry x="502.5" y="180" width="145" height="60" as="geometry" />
        </mxCell>
        <mxCell id="DRwPdE6h5wgFF9VWpqze-17" value="&amp;lt;&amp;lt;includes&amp;gt;&amp;gt;" style="endArrow=none;dashed=1;html=1;rounded=0;entryX=0;entryY=0.5;entryDx=0;entryDy=0;exitX=1.006;exitY=0.633;exitDx=0;exitDy=0;exitPerimeter=0;" edge="1" parent="1" source="DRwPdE6h5wgFF9VWpqze-10" target="DRwPdE6h5wgFF9VWpqze-13">
          <mxGeometry x="0.032" y="14" width="50" height="50" relative="1" as="geometry">
            <mxPoint x="414" y="235" as="sourcePoint" />
            <mxPoint x="464" y="185" as="targetPoint" />
            <mxPoint as="offset" />
          </mxGeometry>
        </mxCell>
        <mxCell id="DRwPdE6h5wgFF9VWpqze-18" value="Κλείσιμο ραντεβού με κτηνίατρο" style="ellipse;whiteSpace=wrap;html=1;fillColor=none;" vertex="1" parent="1">
          <mxGeometry x="250" y="230" width="140" height="60" as="geometry" />
        </mxCell>
        <mxCell id="DRwPdE6h5wgFF9VWpqze-19" value="" style="endArrow=classic;html=1;rounded=0;entryX=0;entryY=0.5;entryDx=0;entryDy=0;exitX=1;exitY=0.3333333333333333;exitDx=0;exitDy=0;exitPerimeter=0;" edge="1" parent="1" source="DRwPdE6h5wgFF9VWpqze-1" target="DRwPdE6h5wgFF9VWpqze-18">
          <mxGeometry width="50" height="50" relative="1" as="geometry">
            <mxPoint x="140" y="260" as="sourcePoint" />
            <mxPoint x="190" y="210" as="targetPoint" />
          </mxGeometry>
        </mxCell>
        <mxCell id="DRwPdE6h5wgFF9VWpqze-20" value="Ακύρωση ραντεβού" style="ellipse;whiteSpace=wrap;html=1;fillColor=none;" vertex="1" parent="1">
          <mxGeometry x="505" y="260" width="135" height="60" as="geometry" />
        </mxCell>
        <mxCell id="DRwPdE6h5wgFF9VWpqze-21" value="&amp;lt;&amp;lt;includes&amp;gt;&amp;gt;" style="endArrow=none;dashed=1;html=1;rounded=0;entryX=0;entryY=0.5;entryDx=0;entryDy=0;" edge="1" parent="1" target="DRwPdE6h5wgFF9VWpqze-20">
          <mxGeometry x="0.2386" y="13" width="50" height="50" relative="1" as="geometry">
            <mxPoint x="390" y="270" as="sourcePoint" />
            <mxPoint x="440" y="260" as="targetPoint" />
            <mxPoint as="offset" />
          </mxGeometry>
        </mxCell>
        <mxCell id="DRwPdE6h5wgFF9VWpqze-24" style="edgeStyle=orthogonalEdgeStyle;rounded=0;orthogonalLoop=1;jettySize=auto;html=1;exitX=0.5;exitY=0;exitDx=0;exitDy=0;" edge="1" parent="1">
          <mxGeometry relative="1" as="geometry">
            <mxPoint x="380" y="270" as="targetPoint" />
            <mxPoint x="390" y="270" as="sourcePoint" />
          </mxGeometry>
        </mxCell>
        <mxCell id="DRwPdE6h5wgFF9VWpqze-23" value="" style="endArrow=classic;html=1;rounded=0;exitX=1;exitY=0.3333333333333333;exitDx=0;exitDy=0;exitPerimeter=0;entryX=0.046;entryY=0.293;entryDx=0;entryDy=0;entryPerimeter=0;" edge="1" parent="1" source="DRwPdE6h5wgFF9VWpqze-1" target="DRwPdE6h5wgFF9VWpqze-25">
          <mxGeometry width="50" height="50" relative="1" as="geometry">
            <mxPoint x="120" y="350" as="sourcePoint" />
            <mxPoint x="294.20532166893395" y="351.98250373861697" as="targetPoint" />
          </mxGeometry>
        </mxCell>
        <mxCell id="DRwPdE6h5wgFF9VWpqze-25" value="Αξιολόγηση φιλοξενητή ή ιδιοκτήτη" style="ellipse;whiteSpace=wrap;html=1;fillColor=none;" vertex="1" parent="1">
          <mxGeometry x="260" y="310" width="140" height="60" as="geometry" />
        </mxCell>
        <mxCell id="DRwPdE6h5wgFF9VWpqze-26" value="Επικοινωνία χρηστών μέσω Chat" style="ellipse;whiteSpace=wrap;html=1;fillColor=none;" vertex="1" parent="1">
          <mxGeometry x="255" y="390" width="140" height="60" as="geometry" />
        </mxCell>
        <mxCell id="DRwPdE6h5wgFF9VWpqze-28" value="" style="endArrow=classic;html=1;rounded=0;entryX=0;entryY=0;entryDx=0;entryDy=0;exitX=0.787;exitY=0.4;exitDx=0;exitDy=0;exitPerimeter=0;" edge="1" parent="1" source="DRwPdE6h5wgFF9VWpqze-1" target="DRwPdE6h5wgFF9VWpqze-26">
          <mxGeometry width="50" height="50" relative="1" as="geometry">
            <mxPoint x="120" y="360" as="sourcePoint" />
            <mxPoint x="170" y="310" as="targetPoint" />
          </mxGeometry>
        </mxCell>
        <mxCell id="DRwPdE6h5wgFF9VWpqze-29" value="Ενεργοποίηση ειδοποιήσεων για αγγελίες ή ραντεβού με κτηνίατρο" style="ellipse;whiteSpace=wrap;html=1;fillColor=none;" vertex="1" parent="1">
          <mxGeometry x="250" y="470" width="150" height="60" as="geometry" />
        </mxCell>
        <mxCell id="DRwPdE6h5wgFF9VWpqze-30" value="" style="endArrow=classic;html=1;rounded=0;entryX=0.235;entryY=0.08;entryDx=0;entryDy=0;entryPerimeter=0;exitX=0.573;exitY=0.293;exitDx=0;exitDy=0;exitPerimeter=0;" edge="1" parent="1" source="DRwPdE6h5wgFF9VWpqze-1" target="DRwPdE6h5wgFF9VWpqze-29">
          <mxGeometry width="50" height="50" relative="1" as="geometry">
            <mxPoint x="120" y="410" as="sourcePoint" />
            <mxPoint x="170" y="360" as="targetPoint" />
          </mxGeometry>
        </mxCell>
        <mxCell id="DRwPdE6h5wgFF9VWpqze-33" value="" style="whiteSpace=wrap;html=1;aspect=fixed;fillColor=none;" vertex="1" parent="1">
          <mxGeometry x="220" y="15" width="540" height="540" as="geometry" />
        </mxCell>
      </root>
    </mxGraphModel>
  </diagram>
</mxfile>
